<?xml version="1.0" encoding="UTF-8" standalone="no"?>
<!-- Created with Inkscape (http://www.inkscape.org/) -->

<svg
   width="297mm"
   height="210mm"
   viewBox="0 0 297 210"
   version="1.1"
   id="svg1"
   xml:space="preserve"
   inkscape:version="1.3 (0e150ed6c4, 2023-07-21)"
   sodipodi:docname="ORGANOGRAMA.svg"
   inkscape:export-filename="..\..\..\..\xampp\htdocs\organograma.png"
   inkscape:export-xdpi="96"
   inkscape:export-ydpi="96"
   xmlns:inkscape="http://www.inkscape.org/namespaces/inkscape"
   xmlns:sodipodi="http://sodipodi.sourceforge.net/DTD/sodipodi-0.dtd"
   xmlns="http://www.w3.org/2000/svg"
   xmlns:svg="http://www.w3.org/2000/svg"><sodipodi:namedview
     id="namedview1"
     pagecolor="#e1e3e2"
     bordercolor="#000000"
     borderopacity="0.25"
     inkscape:showpageshadow="2"
     inkscape:pageopacity="0.0"
     inkscape:pagecheckerboard="0"
     inkscape:deskcolor="#d1d1d1"
     inkscape:document-units="mm"
     inkscape:zoom="0.69397447"
     inkscape:cx="754.35052"
     inkscape:cy="317.73503"
     inkscape:window-width="1920"
     inkscape:window-height="1017"
     inkscape:window-x="1912"
     inkscape:window-y="-8"
     inkscape:window-maximized="1"
     inkscape:current-layer="layer1" /><defs
     id="defs1" /><g
     inkscape:label="Camada 1"
     inkscape:groupmode="layer"
     id="layer1"><text
       xml:space="preserve"
       style="font-weight:bold;font-size:12.5947px;font-family:Arial;-inkscape-font-specification:'Arial, Bold';text-align:center;text-anchor:middle;fill:#000000;fill-opacity:1;fill-rule:evenodd;stroke:#000000;stroke-width:0.370247"
       x="150.0806"
       y="19.276525"
       id="text1"
       transform="scale(0.96665336,1.034497)"><tspan
         sodipodi:role="line"
         id="tspan1"
         x="150.0806"
         y="19.276525"
         style="fill:#000000;fill-opacity:1;stroke-width:0.370247">ORGANOGRAMA</tspan><tspan
         sodipodi:role="line"
         x="150.0806"
         y="35.019901"
         style="fill:#000000;fill-opacity:1;stroke-width:0.370247"
         id="tspan2">ESCRITÓRIO M2</tspan></text><g
       id="g5"
       transform="translate(1.520383,-9.6398309)"><rect
         style="fill:#916f6f;fill-opacity:0.542745;fill-rule:evenodd;stroke:#000000;stroke-width:0.182"
         id="rect2"
         width="65.195122"
         height="20.587933"
         x="61.382542"
         y="56.044926"
         rx="3.2111335"
         ry="3.2111843" /><text
         xml:space="preserve"
         style="font-weight:bold;font-size:6.19109px;font-family:Arial;-inkscape-font-specification:'Arial, Bold';text-align:center;text-anchor:middle;fill:#1a1a1a;fill-opacity:0.542745;fill-rule:evenodd;stroke:#000000;stroke-width:0.182"
         x="93.408218"
         y="64.62323"
         id="text3"><tspan
           sodipodi:role="line"
           id="tspan3"
           style="fill:#1a1a1a;stroke-width:0.182"
           x="93.408218"
           y="64.62323">MAIARA CARLA</tspan><tspan
           sodipodi:role="line"
           style="fill:#1a1a1a;stroke-width:0.182"
           x="93.408218"
           y="72.362091"
           id="tspan6">SÓCIA</tspan></text></g><g
       id="g6"
       transform="translate(-2.9687787,-8.1802126)"><rect
         style="fill:#916f6f;fill-opacity:0.542745;fill-rule:evenodd;stroke:#000000;stroke-width:0.182"
         id="rect3"
         width="65.195122"
         height="20.587933"
         x="161.27214"
         y="54.90115"
         rx="3.2111335"
         ry="3.2111843" /><text
         xml:space="preserve"
         style="font-weight:bold;font-size:6.19109px;font-family:Arial;-inkscape-font-specification:'Arial, Bold';text-align:center;text-anchor:middle;fill:#1a1a1a;fill-opacity:0.542745;fill-rule:evenodd;stroke:#000000;stroke-width:0.182"
         x="194.44159"
         y="62.907566"
         id="text4"><tspan
           sodipodi:role="line"
           id="tspan4"
           style="fill:#1a1a1a;stroke-width:0.182"
           x="194.44159"
           y="62.907566">CARLA MARAISA</tspan><tspan
           sodipodi:role="line"
           style="fill:#1a1a1a;stroke-width:0.182"
           x="194.44159"
           y="70.646431"
           id="tspan7">SÓCIA</tspan></text></g><g
       id="Layer1000"
       transform="matrix(0.35277704,0,0,0.35277704,27.241131,48.135089)"><g
         id="Layer1002"
         transform="matrix(0.99997518,0,0,1.0679484,383.66713,-426.88162)"><g
           id="Layer1002-9"
           transform="matrix(1.0000248,0,0,0.9363748,-11.531987,12.833706)"><path
             d="m 202.93647,380.11096 0.65485,-0.0588 c 0.0307,0.26498 0.1029,0.48193 0.21699,0.65246 0.11406,0.16921 0.2906,0.30644 0.52979,0.41195 0.23902,0.1043 0.50881,0.15699 0.80794,0.15699 0.26619,0 0.50031,-0.0393 0.70392,-0.11908 0.20356,-0.0798 0.3544,-0.1889 0.45362,-0.3275 0.0995,-0.13852 0.14965,-0.28931 0.14965,-0.45119 0,-0.16431 -0.0479,-0.30782 -0.14351,-0.43168 -0.0954,-0.1226 -0.25378,-0.22561 -0.47446,-0.31019 -0.14103,-0.0539 -0.45376,-0.13979 -0.93811,-0.25631 -0.48427,-0.11645 -0.8227,-0.2256 -1.0165,-0.32857 -0.25143,-0.13247 -0.43778,-0.29676 -0.5603,-0.49165 -0.12386,-0.19499 -0.18518,-0.41449 -0.18518,-0.65606 0,-0.26735 0.076,-0.51621 0.22685,-0.74676 0.15079,-0.2317 0.37029,-0.40719 0.66094,-0.5273 0.28931,-0.12021 0.61177,-0.18023 0.96615,-0.18023 0.38998,0 0.73454,0.0626 1.03249,0.18888 0.29792,0.12499 0.52725,0.31017 0.68797,0.55536 0.16058,0.24408 0.24634,0.52117 0.2587,0.83019 l -0.66961,0.0514 c -0.0356,-0.33229 -0.15684,-0.58371 -0.36408,-0.75291 -0.20724,-0.1704 -0.51384,-0.25499 -0.91851,-0.25499 -0.42176,0 -0.72958,0.0773 -0.92205,0.23171 -0.19252,0.15455 -0.28932,0.34096 -0.28932,0.55923 0,0.18877 0.0688,0.3445 0.2047,0.46716 0.13488,0.12134 0.48431,0.2477 1.05088,0.37526 0.56652,0.12888 0.95518,0.24022 1.16618,0.33587 0.30528,0.141 0.53205,0.31884 0.67797,0.53593 0.1459,0.21575 0.21831,0.46462 0.21831,0.74677 0,0.28082 -0.0797,0.54312 -0.24036,0.7908 -0.16058,0.2477 -0.38991,0.44028 -0.69041,0.57756 -0.30034,0.13727 -0.63751,0.20605 -1.01401,0.20605 -0.47579,0 -0.87433,-0.07 -1.19554,-0.20846 -0.32247,-0.13852 -0.57386,-0.34699 -0.75653,-0.62664 -0.18392,-0.2783 -0.27959,-0.5934 -0.28942,-0.94536 z m 5.05433,1.69215 v -5.26775 h 0.64754 v 1.89568 c 0.30037,-0.35199 0.67919,-0.52727 1.13784,-0.52727 0.28081,0 0.52479,0.0552 0.73336,0.1668 0.2071,0.11168 0.35556,0.26483 0.4451,0.46104 0.0894,0.19619 0.13362,0.48193 0.13362,0.85465 v 2.41685 h -0.64743 v -2.41445 c 0,-0.32246 -0.0699,-0.55787 -0.20845,-0.70502 -0.13979,-0.14711 -0.336,-0.22068 -0.59103,-0.22068 -0.19007,0 -0.3691,0.0489 -0.53712,0.14832 -0.16787,0.0993 -0.28692,0.23424 -0.35917,0.40464 -0.0711,0.16921 -0.10679,0.40345 -0.10679,0.7026 v 2.08459 z m 3.84909,-1.90923 c 0,-0.70504 0.19617,-1.22739 0.58979,-1.56711 0.32738,-0.28198 0.72839,-0.423 1.20051,-0.423 0.52354,0 0.95268,0.17168 1.28625,0.51504 0.33234,0.34213 0.49902,0.8166 0.49902,1.42117 0,0.49043 -0.0735,0.87544 -0.22069,1.15624 -0.14713,0.28082 -0.36171,0.49907 -0.64369,0.65481 -0.28081,0.15579 -0.58861,0.23294 -0.92089,0.23294 -0.53465,0 -0.96627,-0.1704 -1.29614,-0.51252 -0.32991,-0.34212 -0.49416,-0.83498 -0.49416,-1.47757 z m 0.66216,9e-4 c 0,0.48794 0.10678,0.85332 0.32001,1.09488 0.21461,0.24286 0.48318,0.36422 0.80813,0.36422 0.32121,0 0.58846,-0.12136 0.80315,-0.36538 0.21337,-0.24398 0.32006,-0.61549 0.32006,-1.11459 0,-0.47091 -0.10805,-0.82766 -0.32257,-1.06921 -0.21457,-0.24288 -0.48191,-0.3642 -0.80064,-0.3642 -0.32495,0 -0.59352,0.12021 -0.80813,0.36166 -0.21332,0.24159 -0.32001,0.60579 -0.32001,1.09262 z m 4.35918,1.90792 -1.15392,-3.81835 h 0.67692 l 0.60933,2.20346 0.2159,0.82035 c 0.008,-0.0406 0.0748,-0.30289 0.19742,-0.78722 l 0.60444,-2.23659 h 0.66337 l 0.57516,2.21693 0.1876,0.72709 0.21943,-0.73695 0.65964,-2.20707 h 0.62909 l -1.19802,3.81835 h -0.66946 l -0.60574,-2.28434 -0.15326,-0.65368 -0.77245,2.93802 z m 4.36889,-1.14039 0.63998,-0.1029 c 0.0356,0.25618 0.13614,0.45239 0.30048,0.58978 0.16425,0.13614 0.3948,0.20473 0.68916,0.20473 0.29795,0 0.51862,-0.0599 0.66336,-0.18144 0.14341,-0.12034 0.2158,-0.26243 0.2158,-0.42549 0,-0.14595 -0.0651,-0.26118 -0.19383,-0.34456 -0.0907,-0.0574 -0.31138,-0.12991 -0.66205,-0.21944 -0.47344,-0.1191 -0.80078,-0.22202 -0.98472,-0.30904 -0.18264,-0.0882 -0.32123,-0.20844 -0.41555,-0.36298 -0.0945,-0.15326 -0.14233,-0.32364 -0.14233,-0.51013 0,-0.17039 0.0394,-0.32738 0.11633,-0.4721 0.0784,-0.14459 0.18398,-0.26486 0.31753,-0.36049 0.10053,-0.0735 0.23797,-0.13613 0.41085,-0.18757 0.17412,-0.0514 0.35915,-0.0773 0.55794,-0.0773 0.29912,0 0.56159,0.0431 0.78718,0.12993 0.2268,0.086 0.39363,0.20363 0.50148,0.35076 0.10679,0.1483 0.18145,0.34571 0.22199,0.5934 l -0.63274,0.0882 c -0.0283,-0.19856 -0.11181,-0.35435 -0.24889,-0.46594 -0.1374,-0.11169 -0.33108,-0.1668 -0.58252,-0.1668 -0.29539,0 -0.50759,0.049 -0.63394,0.14726 -0.12632,0.0981 -0.19008,0.21335 -0.19008,0.3445 0,0.0835 0.0258,0.15938 0.0784,0.22681 0.0527,0.0689 0.13488,0.12645 0.2478,0.17171 0.065,0.0243 0.25382,0.0797 0.57015,0.16549 0.45609,0.12147 0.77495,0.22199 0.9564,0.29928 0.18145,0.0773 0.32375,0.19128 0.42672,0.33845 0.10419,0.1483 0.15574,0.33228 0.15574,0.55294 0,0.21457 -0.0626,0.41688 -0.18884,0.60697 -0.12631,0.19007 -0.30781,0.33721 -0.54446,0.44151 -0.23786,0.10419 -0.5064,0.1556 -0.80556,0.1556 -0.4954,0 -0.87433,-0.1029 -1.13426,-0.3077 -0.25993,-0.20602 -0.42554,-0.51011 -0.49776,-0.91354 z m 8.58464,-0.0954 0.66952,0.0882 c -0.10419,0.38872 -0.29916,0.69159 -0.5837,0.90618 -0.28451,0.21455 -0.64742,0.32242 -1.09009,0.32242 -0.55667,0 -0.99801,-0.17158 -1.32434,-0.51494 -0.32613,-0.34211 -0.48926,-0.82405 -0.48926,-1.44322 0,-0.6401 0.16443,-1.13785 0.49418,-1.49105 0.32989,-0.35433 0.75783,-0.53099 1.2839,-0.53099 0.50881,0 0.92448,0.17295 1.24707,0.51995 0.32245,0.34692 0.48435,0.83499 0.48435,1.46403 0,0.038 -9e-4,0.0956 -0.003,0.17172 h -2.84359 c 0.0246,0.41808 0.14233,0.73936 0.35571,0.96136 0.21205,0.22186 0.47818,0.33345 0.79569,0.33345 0.23665,0 0.43896,-0.0626 0.60581,-0.18753 0.16798,-0.12486 0.30036,-0.32495 0.39849,-0.59967 z m -2.11883,-1.03731 h 2.12617 c -0.0283,-0.32135 -0.1103,-0.56159 -0.24392,-0.72224 -0.20484,-0.24891 -0.47211,-0.37408 -0.79961,-0.37408 -0.29663,0 -0.54564,0.0996 -0.74795,0.29794 -0.20099,0.19877 -0.31259,0.4648 -0.33469,0.79838 z m 5.73127,2.27333 v -5.26773 h 1.9889 c 0.34947,0 0.61669,0.0171 0.80184,0.0503 0.25874,0.0429 0.47584,0.12486 0.65116,0.24515 0.17535,0.12148 0.31631,0.29067 0.42299,0.50778 0.10678,0.21693 0.15948,0.45608 0.15948,0.71721 0,0.44641 -0.14221,0.82524 -0.42791,1.13424 -0.28451,0.31021 -0.80076,0.46477 -1.5462,0.46477 h -1.35135 v 2.14829 z m 0.69891,-2.76625 h 1.36103 c 0.45132,0 0.77005,-0.0835 0.96013,-0.25143 0.18891,-0.16799 0.28337,-0.40344 0.28337,-0.70871 0,-0.21951 -0.0554,-0.40839 -0.16681,-0.56533 -0.11181,-0.15696 -0.25875,-0.26118 -0.44019,-0.31142 -0.11771,-0.0305 -0.3348,-0.0465 -0.6499,-0.0465 h -1.34763 z m 4.12002,2.76625 v -3.81836 h 0.58117 v 0.5849 c 0.14841,-0.27107 0.2857,-0.45001 0.41207,-0.5359 0.12631,-0.0869 0.26483,-0.12994 0.41568,-0.12994 0.21828,0 0.44017,0.0688 0.66578,0.20485 l -0.23051,0.59714 c -0.15697,-0.0882 -0.31395,-0.13248 -0.47093,-0.13248 -0.14098,0 -0.26721,0.0429 -0.37885,0.1276 -0.11156,0.0845 -0.19124,0.2023 -0.23914,0.35315 -0.0722,0.22932 -0.10786,0.48061 -0.10786,0.75407 v 1.99503 z m 2.21449,-1.9092 c 0,-0.70505 0.19621,-1.2274 0.58983,-1.56712 0.32732,-0.28202 0.72839,-0.42301 1.20047,-0.42301 0.52357,0 0.95272,0.1717 1.28632,0.51504 0.33229,0.34214 0.49894,0.81661 0.49894,1.4212 0,0.49042 -0.0735,0.8754 -0.22069,1.15619 -0.14711,0.28081 -0.36167,0.49911 -0.64367,0.65484 -0.28083,0.15578 -0.58863,0.23292 -0.9209,0.23292 -0.53459,0 -0.96625,-0.1704 -1.29613,-0.51249 -0.32989,-0.34215 -0.49417,-0.835 -0.49417,-1.47757 z m 0.66218,8.9e-4 c 0,0.48794 0.10679,0.85333 0.32004,1.09489 0.21454,0.24287 0.48312,0.36421 0.80808,0.36421 0.32126,0 0.58848,-0.12135 0.80321,-0.3654 0.21334,-0.24398 0.32003,-0.6155 0.32003,-1.11456 0,-0.47092 -0.10804,-0.82766 -0.32258,-1.06921 -0.21454,-0.24288 -0.48195,-0.36424 -0.80066,-0.36424 -0.32496,0 -0.59354,0.12022 -0.80808,0.36168 -0.21335,0.24159 -0.32004,0.60581 -0.32004,1.09263 z m 6.13711,1.90792 v -0.48433 c -0.24156,0.37644 -0.59711,0.56518 -1.06682,0.56518 -0.30408,0 -0.58364,-0.0833 -0.83747,-0.25124 -0.25499,-0.1668 -0.45239,-0.40109 -0.59342,-0.7002 -0.1398,-0.30042 -0.20975,-0.64505 -0.20975,-1.03493 0,-0.38017 0.0639,-0.72468 0.19008,-1.03488 0.12759,-0.30903 0.31763,-0.54685 0.57145,-0.71125 0.25262,-0.16548 0.53702,-0.24768 0.84973,-0.24768 0.23051,0 0.43524,0.0492 0.61427,0.14589 0.17907,0.0968 0.325,0.22443 0.43778,0.38018 v -1.89448 h 0.64741 v 5.26774 z m -2.04527,-1.90431 c 0,0.48801 0.1029,0.85226 0.31018,1.09384 0.20602,0.24155 0.45,0.36165 0.73081,0.36165 0.28333,0 0.52356,-0.1152 0.7223,-0.34571 0.19739,-0.23056 0.29675,-0.58251 0.29675,-1.05582 0,-0.51994 -0.10053,-0.90251 -0.3029,-1.14648 -0.20113,-0.24404 -0.45,-0.3654 -0.74553,-0.3654 -0.28815,0 -0.52851,0.11645 -0.7223,0.35068 -0.1925,0.23423 -0.28931,0.60334 -0.28931,1.10724 z m 6.16647,1.90431 v -0.56775 c -0.29677,0.43286 -0.69885,0.6486 -1.20779,0.6486 -0.2244,0 -0.43406,-0.0428 -0.62903,-0.12874 -0.19492,-0.0869 -0.33962,-0.19491 -0.43407,-0.32489 -0.0945,-0.13119 -0.16057,-0.29061 -0.19861,-0.47951 -0.0258,-0.12747 -0.0394,-0.32854 -0.0394,-0.60326 v -2.36281 h 0.64742 v 2.11275 c 0,0.3372 0.014,0.56521 0.0394,0.68176 0.0405,0.1704 0.12632,0.30286 0.25875,0.39972 0.1312,0.0966 0.29303,0.14592 0.48684,0.14592 0.19369,0 0.37512,-0.0492 0.54433,-0.14835 0.16933,-0.0996 0.28945,-0.2354 0.3606,-0.40594 0.07,-0.17044 0.10539,-0.4193 0.10539,-0.74426 v -2.0416 h 0.64754 v 3.81835 z m 4.09183,-1.39791 0.63277,0.0882 c -0.0699,0.43525 -0.24649,0.77501 -0.5322,1.02148 -0.28574,0.24646 -0.63757,0.36894 -1.05325,0.36894 -0.52119,0 -0.94057,-0.17037 -1.2569,-0.51128 -0.31755,-0.3408 -0.4758,-0.82888 -0.4758,-1.46402 0,-0.41197 0.0689,-0.77126 0.20481,-1.08027 0.13614,-0.30778 0.34334,-0.53954 0.62296,-0.69287 0.27826,-0.15446 0.58116,-0.23172 0.90983,-0.23172 0.41319,0 0.75278,0.1042 1.01521,0.3139 0.26364,0.20964 0.43285,0.50762 0.50646,0.8927 l -0.62537,0.0956 c -0.06,-0.25629 -0.16549,-0.44877 -0.31883,-0.57875 -0.15204,-0.12884 -0.33601,-0.1938 -0.55178,-0.1938 -0.32617,0 -0.59103,0.11633 -0.79585,0.34958 -0.2035,0.23414 -0.30529,0.60205 -0.30529,1.10726 0,0.51248 0.0982,0.88403 0.29435,1.11576 0.19741,0.23175 0.4536,0.34824 0.76875,0.34824 0.25514,0 0.46719,-0.0773 0.63648,-0.23295 0.17039,-0.15455 0.27831,-0.39355 0.32365,-0.71613 z m -1.51069,2.03068 0.18649,-0.63277 h 0.47819 l -0.11909,0.38259 c 0.20487,0.0243 0.3593,0.087 0.46357,0.18881 0.1043,0.10053 0.1558,0.21338 0.1558,0.33725 0,0.17904 -0.0869,0.33718 -0.26125,0.47449 -0.17292,0.1374 -0.43527,0.20602 -0.78472,0.20602 -0.19753,0 -0.37165,0 -0.52115,0 l 0.0366,-0.4561 c 0.15579,0.003 0.26858,0.006 0.34214,0.006 0.22692,0 0.38748,-0.0308 0.47952,-0.0933 0.0701,-0.0479 0.10538,-0.10538 0.10538,-0.1753 0,-0.0431 -0.014,-0.0809 -0.0417,-0.11408 -0.0271,-0.0333 -0.0773,-0.0626 -0.15083,-0.0858 -0.0747,-0.0232 -0.19742,-0.0368 -0.3691,-0.0392 z m 2.45247,-2.54201 c 0,-0.70502 0.1962,-1.22738 0.58983,-1.56711 0.32733,-0.28195 0.72838,-0.42298 1.20049,-0.42298 0.52356,0 0.95268,0.1717 1.28628,0.51503 0.33229,0.34213 0.49898,0.81661 0.49898,1.42119 0,0.49042 -0.0735,0.87543 -0.22069,1.15624 -0.14714,0.28078 -0.36169,0.49904 -0.64367,0.65479 -0.28082,0.15579 -0.58861,0.23293 -0.9209,0.23293 -0.53463,0 -0.96628,-0.17039 -1.29613,-0.51249 -0.32991,-0.34215 -0.49419,-0.835 -0.49419,-1.4776 z m 0.66218,9.2e-4 c 0,0.48794 0.10678,0.85333 0.32002,1.09489 0.21456,0.24285 0.4831,0.36419 0.80812,0.36419 0.32123,0 0.58847,-0.12134 0.80316,-0.36538 0.21337,-0.24398 0.32006,-0.6155 0.32006,-1.11458 0,-0.47091 -0.10804,-0.82768 -0.32262,-1.06923 -0.21451,-0.24286 -0.48189,-0.36418 -0.8006,-0.36418 -0.32502,0 -0.59356,0.12022 -0.80812,0.36166 -0.21337,0.2416 -0.32002,0.6058 -0.32002,1.09263 z m -0.0515,-2.37402 c -0.002,-0.24645 0.0661,-0.44267 0.20471,-0.58979 0.13613,-0.14591 0.31154,-0.21949 0.52491,-0.21949 0.14831,0 0.35064,0.0626 0.60563,0.1889 0.14114,0.0699 0.25391,0.10549 0.33721,0.10549 0.0774,0 0.13626,-0.0209 0.17663,-0.0626 0.0405,-0.0405 0.0688,-0.12385 0.0858,-0.24635 h 0.46357 c -0.006,0.27214 -0.0761,0.4757 -0.20605,0.61175 -0.12991,0.13628 -0.29425,0.20485 -0.49534,0.20485 -0.14965,0 -0.34827,-0.0673 -0.59356,-0.20111 -0.16053,-0.0869 -0.27827,-0.12993 -0.35314,-0.12993 -0.0808,0 -0.14712,0.0282 -0.19622,0.0858 -0.0527,0.0565 -0.0784,0.14101 -0.076,0.25262 z m 6.32839,3.0459 0.6695,0.0882 c -0.10431,0.38872 -0.29915,0.69156 -0.58368,0.90616 -0.28452,0.21454 -0.6474,0.32241 -1.09008,0.32241 -0.5567,0 -0.99808,-0.17159 -1.32433,-0.51491 -0.32619,-0.34213 -0.48926,-0.82406 -0.48926,-1.44323 0,-0.64008 0.16437,-1.13785 0.49418,-1.49106 0.32986,-0.35432 0.75779,-0.53099 1.28387,-0.53099 0.50882,0 0.92449,0.17296 1.24704,0.51996 0.32246,0.34692 0.48436,0.83498 0.48436,1.46404 0,0.038 -9.4e-4,0.0955 -0.003,0.1717 h -2.84356 c 0.0245,0.41807 0.14232,0.73936 0.35569,0.96135 0.21205,0.22188 0.47822,0.33347 0.79576,0.33347 0.23665,0 0.43894,-0.0626 0.60574,-0.18755 0.16804,-0.12486 0.30037,-0.32496 0.39853,-0.59966 z m -2.11885,-1.03731 h 2.1262 c -0.0282,-0.32135 -0.1103,-0.56159 -0.24398,-0.72225 -0.20487,-0.24888 -0.47211,-0.37406 -0.79956,-0.37406 -0.29663,0 -0.54563,0.0996 -0.748,0.29794 -0.20099,0.19876 -0.31261,0.46479 -0.33466,0.79837 z m 3.34876,1.13296 0.63996,-0.1029 c 0.0356,0.2562 0.13627,0.45241 0.30047,0.58979 0.16432,0.13613 0.39481,0.20472 0.6892,0.20472 0.29795,0 0.51865,-0.06 0.66339,-0.18144 0.14338,-0.12034 0.21572,-0.26244 0.21572,-0.42549 0,-0.14593 -0.065,-0.26118 -0.19379,-0.34454 -0.0908,-0.0574 -0.31142,-0.12992 -0.66202,-0.21949 -0.47342,-0.11909 -0.80079,-0.22198 -0.98475,-0.30899 -0.18268,-0.0883 -0.32126,-0.20845 -0.41558,-0.363 -0.0945,-0.15324 -0.14233,-0.32366 -0.14233,-0.51013 0,-0.1704 0.0394,-0.32737 0.11645,-0.4721 0.0784,-0.14459 0.18396,-0.26486 0.31754,-0.36048 0.10052,-0.0735 0.23795,-0.13614 0.41088,-0.18759 0.17411,-0.0514 0.35915,-0.0773 0.55788,-0.0773 0.29918,0 0.5616,0.0431 0.78723,0.12992 0.2268,0.0859 0.39358,0.20362 0.5015,0.35076 0.10679,0.1483 0.1814,0.34571 0.22201,0.59339 l -0.63277,0.0882 c -0.0283,-0.19859 -0.1118,-0.35438 -0.24894,-0.46597 -0.13738,-0.11169 -0.33105,-0.1668 -0.58247,-0.1668 -0.29544,0 -0.50758,0.049 -0.63393,0.14725 -0.12633,0.0981 -0.1901,0.21336 -0.1901,0.34451 0,0.0835 0.0258,0.15938 0.0784,0.22682 0.0528,0.0689 0.13486,0.12645 0.24782,0.17171 0.065,0.0244 0.25378,0.0797 0.57008,0.16549 0.45617,0.12147 0.77501,0.22201 0.95646,0.29927 0.18139,0.0773 0.32373,0.19128 0.42674,0.33845 0.10419,0.1483 0.15575,0.33227 0.15575,0.55295 0,0.21455 -0.0626,0.41686 -0.18891,0.60694 -0.12632,0.1901 -0.30781,0.33725 -0.54443,0.44153 -0.23785,0.10419 -0.50642,0.1556 -0.80561,0.1556 -0.49534,0 -0.87432,-0.1029 -1.13424,-0.30769 -0.25993,-0.20603 -0.4255,-0.51011 -0.49775,-0.91357 z m 5.07766,1.14038 2.02079,-5.26772 h 0.76634 l 2.14469,5.26772 h -0.79346 l -0.60938,-1.59651 h -2.21825 l -0.5713,1.59651 z m 1.51557,-2.16307 h 1.79515 l -0.54937,-1.46038 c -0.16548,-0.4439 -0.29054,-0.81048 -0.37766,-1.09984 -0.0722,0.34333 -0.1692,0.68057 -0.29066,1.01403 z m 3.88087,2.16307 v -3.81836 h 0.58117 v 0.58488 c 0.14845,-0.27107 0.28573,-0.45001 0.41211,-0.53588 0.12631,-0.0869 0.26483,-0.12993 0.41567,-0.12993 0.21826,0 0.44018,0.0688 0.66578,0.20488 l -0.23056,0.59713 c -0.15693,-0.0882 -0.3139,-0.13248 -0.47087,-0.13248 -0.14099,0 -0.26721,0.0431 -0.37886,0.1276 -0.11182,0.0845 -0.19126,0.20231 -0.23915,0.35316 -0.0722,0.22933 -0.10776,0.4806 -0.10776,0.75409 v 1.99503 z m 3.86249,-0.57756 0.0882,0.57142 c -0.18144,0.038 -0.34456,0.0576 -0.48674,0.0576 -0.23426,0 -0.4157,-0.0366 -0.54578,-0.11168 -0.12876,-0.0746 -0.21946,-0.17161 -0.27219,-0.29305 -0.0526,-0.12134 -0.0784,-0.37644 -0.0784,-0.76514 v -2.19976 h -0.47822 v -0.50028 h 0.47822 v -0.94416 l 0.6474,-0.3888 v 1.33296 h 0.64743 v 0.50028 h -0.64743 v 2.23661 c 0,0.18516 0.0113,0.30407 0.0343,0.35675 0.0221,0.0526 0.0589,0.0945 0.11031,0.12644 0.0514,0.0304 0.12486,0.0465 0.22067,0.0465 0.0712,0 0.1656,-0.008 0.282,-0.0258 z m 0.86705,0.57756 v -3.81836 h 0.64737 v 3.81836 z m -0.21338,-4.28923 0.47088,-1.00789 h 0.85344 l -0.78717,1.00789 z m 1.77193,3.14885 0.63996,-0.1029 c 0.0356,0.2562 0.13613,0.45241 0.30048,0.58979 0.16432,0.13613 0.39481,0.20472 0.68917,0.20472 0.29797,0 0.51868,-0.06 0.66337,-0.18144 0.14342,-0.12034 0.21576,-0.26244 0.21576,-0.42549 0,-0.14593 -0.065,-0.26118 -0.19378,-0.34454 -0.0907,-0.0574 -0.31143,-0.12992 -0.66207,-0.21949 -0.47338,-0.11909 -0.80075,-0.22198 -0.98474,-0.30899 -0.18262,-0.0883 -0.32121,-0.20845 -0.41554,-0.363 -0.0945,-0.15324 -0.14233,-0.32366 -0.14233,-0.51013 0,-0.1704 0.0394,-0.32737 0.11632,-0.4721 0.0784,-0.14459 0.184,-0.26486 0.31755,-0.36048 0.10053,-0.0735 0.23795,-0.13614 0.4109,-0.18759 0.17412,-0.0514 0.35916,-0.0773 0.55785,-0.0773 0.29921,0 0.56161,0.0431 0.78723,0.12992 0.22683,0.0859 0.39361,0.20362 0.50149,0.35076 0.10678,0.1483 0.18144,0.34571 0.222,0.59339 l -0.63276,0.0882 c -0.0283,-0.19859 -0.11168,-0.35438 -0.24889,-0.46597 -0.13739,-0.11169 -0.33111,-0.1668 -0.5825,-0.1668 -0.29542,0 -0.50761,0.049 -0.63396,0.14725 -0.12633,0.0981 -0.1901,0.21336 -0.1901,0.34451 0,0.0835 0.026,0.15938 0.0785,0.22682 0.0526,0.0689 0.13486,0.12645 0.24782,0.17171 0.065,0.0244 0.2538,0.0797 0.5701,0.16549 0.45616,0.12147 0.77497,0.22201 0.95641,0.29927 0.18144,0.0773 0.32377,0.19128 0.42675,0.33845 0.1043,0.1483 0.15576,0.33227 0.15576,0.55295 0,0.21455 -0.0626,0.41686 -0.18888,0.60694 -0.12632,0.1901 -0.30782,0.33725 -0.54444,0.44153 -0.23784,0.10419 -0.50642,0.1556 -0.8056,0.1556 -0.49534,0 -0.87433,-0.1029 -1.13427,-0.30769 -0.2599,-0.20603 -0.42551,-0.51011 -0.49773,-0.91357 z m 5.34127,0.56282 0.0882,0.57142 c -0.18144,0.038 -0.34449,0.0576 -0.48671,0.0576 -0.23424,0 -0.41569,-0.0366 -0.54578,-0.11168 -0.12873,-0.0746 -0.21946,-0.17161 -0.27215,-0.29305 -0.0527,-0.12134 -0.0784,-0.37644 -0.0784,-0.76514 v -2.19976 h -0.47819 v -0.50028 h 0.47819 v -0.94416 l 0.64743,-0.3888 v 1.33296 h 0.64739 v 0.50028 h -0.64739 v 2.23661 c 0,0.18516 0.0113,0.30407 0.0343,0.35675 0.0221,0.0526 0.0589,0.0945 0.11031,0.12644 0.0514,0.0304 0.12486,0.0465 0.22067,0.0465 0.0711,0 0.16557,-0.008 0.28197,-0.0258 z m 0.63891,-3.95443 v -0.73573 h 0.64748 v 0.73573 z m 0,4.53199 v -3.81836 h 0.64748 v 3.81836 z m 4.12866,-1.39792 0.63276,0.0882 c -0.0699,0.43529 -0.24649,0.77501 -0.53222,1.02148 -0.28572,0.24648 -0.63756,0.36899 -1.05327,0.36899 -0.52113,0 -0.94056,-0.1704 -1.25689,-0.51131 -0.31751,-0.34079 -0.4758,-0.82886 -0.4758,-1.46405 0,-0.41194 0.0689,-0.77121 0.20486,-1.08022 0.13613,-0.30781 0.34332,-0.53955 0.62289,-0.69287 0.27831,-0.15449 0.5812,-0.23176 0.9099,-0.23176 0.41314,0 0.75272,0.10431 1.01521,0.31391 0.26366,0.20965 0.43283,0.50764 0.50638,0.8927 l -0.6253,0.0955 c -0.06,-0.25628 -0.16548,-0.44877 -0.31885,-0.57873 -0.15203,-0.12888 -0.33601,-0.19382 -0.55179,-0.19382 -0.32614,0 -0.59098,0.11632 -0.79584,0.34955 -0.20354,0.23414 -0.30528,0.60207 -0.30528,1.10728 0,0.51253 0.0983,0.88402 0.29437,1.11577 0.19738,0.23171 0.45361,0.34823 0.76873,0.34823 0.25511,0 0.46716,-0.0773 0.63649,-0.2329 0.1704,-0.15458 0.27826,-0.39361 0.32365,-0.71619 z m 3.67863,0.91971 c -0.24036,0.20473 -0.47208,0.34826 -0.69396,0.43284 -0.22202,0.0848 -0.45985,0.12632 -0.71499,0.12632 -0.41928,0 -0.74185,-0.10161 -0.96745,-0.30648 -0.2256,-0.20353 -0.33837,-0.46476 -0.33837,-0.78224 0,-0.18642 0.0429,-0.35695 0.12759,-0.51138 0.0858,-0.15457 0.19739,-0.2772 0.33468,-0.37029 0.13865,-0.0933 0.29316,-0.1643 0.46598,-0.21216 0.12759,-0.0333 0.32004,-0.065 0.57633,-0.0969 0.52241,-0.0613 0.90852,-0.13599 1.15501,-0.222 0.002,-0.0881 0.003,-0.14458 0.003,-0.16797 0,-0.26235 -0.0614,-0.44752 -0.184,-0.5554 -0.16547,-0.14592 -0.41196,-0.21826 -0.73814,-0.21826 -0.30526,0 -0.53097,0.0537 -0.6756,0.16058 -0.14593,0.10668 -0.25259,0.29552 -0.32254,0.56768 l -0.63268,-0.0881 c 0.0577,-0.27109 0.15207,-0.49055 0.28444,-0.65727 0.13248,-0.1668 0.32374,-0.29434 0.57384,-0.38506 0.249,-0.0896 0.53951,-0.13489 0.86822,-0.13489 0.32615,0 0.59218,0.0379 0.79703,0.11532 0.20354,0.0773 0.35437,0.17282 0.45,0.28932 0.0954,0.11658 0.16306,0.26366 0.20232,0.4415 0.0209,0.11018 0.0321,0.30898 0.0321,0.59474 v 0.85826 c 0,0.59964 0.014,0.9785 0.0405,1.13914 0.0257,0.16069 0.0797,0.31395 0.15816,0.46106 h -0.67697 c -0.065,-0.13614 -0.10679,-0.29556 -0.12487,-0.47819 z m -0.0514,-1.4346 c -0.23546,0.0954 -0.58862,0.17649 -1.05949,0.24272 -0.26726,0.038 -0.45616,0.0808 -0.56642,0.12888 -0.11055,0.0479 -0.19501,0.11758 -0.2551,0.20841 -0.06,0.092 -0.0908,0.19371 -0.0908,0.3065 0,0.17052 0.065,0.31396 0.19618,0.42803 0.13122,0.11407 0.32247,0.17164 0.57389,0.17164 0.24887,0 0.47088,-0.0541 0.66587,-0.16307 0.19365,-0.10787 0.33717,-0.25635 0.42791,-0.44391 0.0699,-0.14594 0.10419,-0.36049 0.10419,-0.64369 z m 1.39175,0.77243 0.63997,-0.1029 c 0.0356,0.2562 0.13612,0.45241 0.30048,0.58979 0.16431,0.13613 0.39481,0.20472 0.68916,0.20472 0.298,0 0.51868,-0.06 0.66339,-0.18144 0.1434,-0.12034 0.21576,-0.26244 0.21576,-0.42549 0,-0.14593 -0.065,-0.26118 -0.19379,-0.34454 -0.0908,-0.0574 -0.31143,-0.12992 -0.66205,-0.21949 -0.4734,-0.11909 -0.80078,-0.22198 -0.98477,-0.30899 -0.18259,-0.0883 -0.32121,-0.20845 -0.41553,-0.363 -0.0944,-0.15324 -0.14232,-0.32366 -0.14232,-0.51013 0,-0.1704 0.0393,-0.32737 0.11645,-0.4721 0.0784,-0.14459 0.18398,-0.26486 0.31755,-0.36048 0.10053,-0.0735 0.23797,-0.13614 0.4109,-0.18759 0.17411,-0.0514 0.35915,-0.0773 0.55789,-0.0773 0.29915,0 0.56158,0.0431 0.78718,0.12992 0.22682,0.0859 0.39362,0.20362 0.50148,0.35076 0.10678,0.1483 0.18145,0.34571 0.22201,0.59339 l -0.63277,0.0882 c -0.0282,-0.19859 -0.11181,-0.35438 -0.24889,-0.46597 -0.13738,-0.11169 -0.3311,-0.1668 -0.58245,-0.1668 -0.29547,0 -0.50764,0.049 -0.63401,0.14725 -0.12631,0.0981 -0.19005,0.21336 -0.19005,0.34451 0,0.0835 0.0259,0.15938 0.0784,0.22682 0.0527,0.0689 0.13487,0.12645 0.24784,0.17171 0.065,0.0244 0.25378,0.0797 0.57008,0.16549 0.45617,0.12147 0.77499,0.22201 0.95642,0.29927 0.18143,0.0773 0.32379,0.19128 0.42674,0.33845 0.10441,0.1483 0.15578,0.33227 0.15578,0.55295 0,0.21455 -0.0626,0.41686 -0.18888,0.60694 -0.12633,0.1901 -0.30783,0.33725 -0.54446,0.44153 -0.23783,0.10419 -0.50641,0.1556 -0.8056,0.1556 -0.49533,0 -0.87429,-0.1029 -1.13422,-0.30769 -0.25994,-0.20603 -0.42553,-0.51011 -0.49777,-0.91357 z"
             style="fill:#b18512;fill-rule:evenodd;stroke:#b18512;stroke-width:0.0914415;stroke-linecap:butt;stroke-linejoin:miter;stroke-dasharray:none"
             id="path28" /><g
             id="Layer1003"
             transform="matrix(1.2548805,0,0,1.2548805,-43.550394,-93.679933)"><path
               d="m 214.1866,372.7969 v -68.7468 h 5.9115 l 20.7807,26.0479 20.8876,-26.0479 h 5.8169 v 68.7468 H 261.29 l 0.0923,-60.566 -20.4979,26.1921 -20.3122,-26.1921 -0.0923,60.566 z"
               style="fill:#b18512;fill-rule:evenodd;stroke:#b18512;stroke-width:0.216;stroke-linecap:butt;stroke-linejoin:miter;stroke-dasharray:none"
               id="path29" /><path
               d="m 196.5751,372.8667 -0.16,-68.7907 h 9.8476 l 34.6228,42.0738 34.7816,-42.0738 h 9.6865 l 0.0867,78.1303 h -10.4804 l -0.0867,-63.0639 -33.9877,40.6502 -33.9876,-40.6502 0.1599,53.7243 z"
               style="fill:#b18512;fill-rule:evenodd;stroke:#b18512;stroke-width:0.216;stroke-linecap:butt;stroke-linejoin:miter;stroke-dasharray:none"
               id="path30" /><path
               d="m 294.967,363.9637 c -0.0244,-0.9624 -0.061,-2.035 -0.0975,-3.2173 -0.0366,-1.1827 -0.0491,-1.8701 -0.0491,-2.0625 0,-4.5377 0.819,-8.0025 2.469,-10.395 1.6495,-2.3924 4.5216,-4.4138 8.6032,-6.0499 1.4054,-0.5364 3.3363,-1.2513 5.7682,-2.1725 7.3448,-2.7638 11.0234,-5.3073 11.0234,-7.6176 0,-1.8972 -0.8677,-3.4786 -2.6156,-4.7298 -1.7351,-1.2513 -3.9716,-1.8701 -6.6968,-1.8701 -2.3587,0 -4.7784,0.5364 -7.2468,1.5951 -2.469,1.0587 -5.133,2.7224 -8.0047,5.0048 l -2.9452,-4.3035 c 2.9452,-2.5574 5.866,-4.4413 8.7865,-5.6651 2.9089,-1.2237 5.8907,-1.8286 8.9581,-1.8286 4.3871,0 7.9679,1.1276 10.7421,3.3687 2.774,2.2414 4.1551,5.0737 4.1551,8.5113 0,4.5649 -4.5706,8.566 -13.724,12.0036 -0.7823,0.33 -1.3688,0.5499 -1.7597,0.6874 -5.5973,2.1311 -9.0924,3.9325 -10.461,5.4037 -1.3813,1.4712 -2.0656,3.5062 -2.0656,6.0911 0,0.2338 0.0122,0.4949 0.0246,0.7838 0.0119,0.2749 0.0488,0.7287 0.1222,1.3476 h 28.5968 v 5.1148 z"
               style="fill:#b18512;fill-rule:evenodd;stroke:#b18512;stroke-width:0.216;stroke-linecap:butt;stroke-linejoin:miter;stroke-dasharray:none"
               id="path31" /><path
               id="path32"
               style="fill:#b18512;fill-rule:evenodd;stroke:#b18512;stroke-width:0.5669;stroke-linecap:butt;stroke-linejoin:miter;stroke-dasharray:none"
               d="m 285.45071,375.52482 v 6.4878 h 36.98738 l 0.46143,-2.18115 -1.66993,-1.51465 2.23389,-0.23731 0.91407,-2.0669 0.91406,2.0669 2.23389,0.23731 -1.66846,1.51465 0.45997,2.18115 h 3.51123 l 0.46143,-2.18115 -1.66846,-1.51465 2.23389,-0.23731 0.91407,-2.0669 0.91406,2.0669 2.23389,0.23731 -1.66992,1.51465 0.46142,2.18115 h 2.12696 v -6.4878 z m 38.92684,5.3877 -1.89258,1.1001 h 3.78516 z m 7.39162,0 -1.89405,1.1001 h 3.78663 z" /><path
               d="m 267.7135,369.397 h 68.2351 v 3.2442 h -68.2351 z"
               style="fill:#b18512;fill-rule:evenodd;stroke:#b18512;stroke-width:0.5669;stroke-linecap:butt;stroke-linejoin:miter;stroke-dasharray:none"
               id="path33" /></g></g></g></g><g
       id="g9"
       transform="translate(48.033862,20.670182)"><rect
         style="fill:#916f6f;fill-opacity:0.542745;fill-rule:evenodd;stroke:#000000;stroke-width:0.203468"
         id="rect7"
         width="81.567749"
         height="20.566463"
         x="53.386856"
         y="56.05566"
         rx="3.2111335"
         ry="3.2111843" /><text
         xml:space="preserve"
         style="font-weight:bold;font-size:6.19109px;font-family:Arial;-inkscape-font-specification:'Arial, Bold';text-align:center;text-anchor:middle;fill:#1a1a1a;fill-opacity:0.542745;fill-rule:evenodd;stroke:#000000;stroke-width:0.182"
         x="93.408218"
         y="64.62323"
         id="text9"><tspan
           sodipodi:role="line"
           id="tspan8"
           style="fill:#1a1a1a;stroke-width:0.182"
           x="93.408218"
           y="64.62323">M2 SHOWS PRODUÇÕES</tspan><tspan
           sodipodi:role="line"
           style="fill:#1a1a1a;stroke-width:0.182"
           x="93.408218"
           y="72.362091"
           id="tspan9">EMPRESA</tspan></text></g><g
       id="g11"
       transform="translate(48.563029,47.629195)"><rect
         style="fill:#916f6f;fill-opacity:0.542745;fill-rule:evenodd;stroke:#000000;stroke-width:0.169389"
         id="rect9"
         width="56.438797"
         height="20.600544"
         x="65.18882"
         y="56.03862"
         rx="3.2111335"
         ry="3.2111843" /><text
         xml:space="preserve"
         style="font-weight:bold;font-size:6.19109px;font-family:Arial;-inkscape-font-specification:'Arial, Bold';text-align:center;text-anchor:middle;fill:#1a1a1a;fill-opacity:0.542745;fill-rule:evenodd;stroke:#000000;stroke-width:0.182"
         x="93.408218"
         y="64.62323"
         id="text11"><tspan
           sodipodi:role="line"
           id="tspan10"
           style="fill:#1a1a1a;stroke-width:0.182"
           x="93.408218"
           y="64.62323">MARCO CESAR</tspan><tspan
           sodipodi:role="line"
           style="fill:#1a1a1a;stroke-width:0.182"
           x="93.408218"
           y="72.362091"
           id="tspan11">DIRETOR</tspan></text></g><g
       id="g13"
       transform="translate(43.941543,76.138256)"><rect
         style="fill:#916f6f;fill-opacity:0.542745;fill-rule:evenodd;stroke:#000000;stroke-width:0.134839"
         id="rect11"
         width="35.703552"
         height="20.635096"
         x="74.894981"
         y="56.021347"
         rx="3.2111335"
         ry="3.2111843" /><text
         xml:space="preserve"
         style="font-weight:bold;font-size:6.19109px;font-family:Arial;-inkscape-font-specification:'Arial, Bold';text-align:center;text-anchor:middle;fill:#1a1a1a;fill-opacity:0.542745;fill-rule:evenodd;stroke:#000000;stroke-width:0.182"
         x="93.408218"
         y="64.62323"
         id="text13"><tspan
           sodipodi:role="line"
           id="tspan12"
           style="fill:#1a1a1a;stroke-width:0.182"
           x="93.408218"
           y="64.62323">MAISA</tspan><tspan
           sodipodi:role="line"
           style="fill:#1a1a1a;stroke-width:0.182"
           x="93.408218"
           y="72.362091"
           id="tspan13">GERENTE</tspan></text></g><g
       id="g15"
       transform="matrix(1.0337263,0,0,0.99986306,-2.7883322,77.134522)"><rect
         style="fill:#916f6f;fill-opacity:0.542745;fill-rule:evenodd;stroke:#000000;stroke-width:0.149499"
         id="rect13"
         width="43.919147"
         height="20.620771"
         x="71.817459"
         y="54.884575"
         rx="3.1063673"
         ry="3.2116241" /><text
         xml:space="preserve"
         style="font-weight:bold;font-size:6.19109px;font-family:Arial;-inkscape-font-specification:'Arial, Bold';text-align:center;text-anchor:middle;fill:#1a1a1a;fill-opacity:0.542745;fill-rule:evenodd;stroke:#000000;stroke-width:0.182"
         x="93.408218"
         y="64.62323"
         id="text15"><tspan
           sodipodi:role="line"
           id="tspan14"
           style="fill:#1a1a1a;stroke-width:0.182"
           x="93.408218"
           y="64.62323">FRANCISCO</tspan><tspan
           sodipodi:role="line"
           style="fill:#1a1a1a;stroke-width:0.182"
           x="93.408218"
           y="72.362091"
           id="tspan15">AUDITOR</tspan></text></g><g
       id="g17"
       transform="translate(-48.047731,74.046799)"><rect
         style="fill:#916f6f;fill-opacity:0.542745;fill-rule:evenodd;stroke:#000000;stroke-width:0.191137"
         id="rect15"
         width="56.417049"
         height="26.240189"
         x="61.155838"
         y="57.948116"
         rx="3.2111335"
         ry="3.2111843" /><text
         xml:space="preserve"
         style="font-weight:bold;font-size:6.07448px;font-family:Arial;-inkscape-font-specification:'Arial, Bold';text-align:center;text-anchor:middle;fill:#1a1a1a;fill-opacity:0.542745;fill-rule:evenodd;stroke:#000000;stroke-width:0.178572"
         x="88.596115"
         y="65.32972"
         id="text17"><tspan
           sodipodi:role="line"
           id="tspan16"
           style="fill:#1a1a1a;stroke-width:0.178572"
           x="88.596115"
           y="65.32972">Dra. ELISANGELA</tspan><tspan
           sodipodi:role="line"
           style="fill:#1a1a1a;stroke-width:0.178572"
           x="88.596115"
           y="72.922821"
           id="tspan18">Dr. CESAR FARIA</tspan><tspan
           sodipodi:role="line"
           style="fill:#1a1a1a;stroke-width:0.178572"
           x="88.596115"
           y="80.515923"
           id="tspan17">JURÍDICO</tspan></text></g><path
       style="display:inline;fill:none;fill-rule:evenodd;stroke:#000000;stroke-width:0.0984956px;stroke-linecap:butt;stroke-linejoin:miter;stroke-opacity:1"
       d="m 127.23527,56.578531 31.09173,0.05199"
       id="path18"
       inkscape:connector-type="polyline"
       inkscape:connector-curvature="0" /><g
       id="g20"
       transform="matrix(1.0337263,0,0,0.99986306,160.33412,77.282435)"><rect
         style="fill:#916f6f;fill-opacity:0.542745;fill-rule:evenodd;stroke:#000000;stroke-width:0.149499"
         id="rect18"
         width="43.919147"
         height="20.620771"
         x="71.817459"
         y="54.884575"
         rx="3.1063673"
         ry="3.2116241" /><text
         xml:space="preserve"
         style="font-weight:bold;font-size:6.19109px;font-family:Arial;-inkscape-font-specification:'Arial, Bold';text-align:center;text-anchor:middle;fill:#1a1a1a;fill-opacity:0.542745;fill-rule:evenodd;stroke:#000000;stroke-width:0.182"
         x="93.408218"
         y="64.62323"
         id="text20"><tspan
           sodipodi:role="line"
           id="tspan19"
           style="fill:#1a1a1a;stroke-width:0.182"
           x="93.408218"
           y="64.62323">MESSIAS</tspan><tspan
           sodipodi:role="line"
           style="fill:#1a1a1a;stroke-width:0.182"
           x="93.408218"
           y="72.362091"
           id="tspan20">T.I.</tspan></text></g><g
       id="g22"
       transform="matrix(1.2321787,0,0,0.9993182,90.118284,77.137945)"><rect
         style="fill:#916f6f;fill-opacity:0.542745;fill-rule:evenodd;stroke:#000000;stroke-width:0.122588"
         id="rect20"
         width="29.491653"
         height="20.648037"
         x="84.929741"
         y="54.870941"
         rx="2.6060617"
         ry="3.2133753" /><text
         xml:space="preserve"
         style="font-weight:bold;font-size:6.19109px;font-family:Arial;-inkscape-font-specification:'Arial, Bold';text-align:center;text-anchor:middle;fill:#1a1a1a;fill-opacity:0.542745;fill-rule:evenodd;stroke:#000000;stroke-width:0.182"
         x="100.09534"
         y="64.62323"
         id="text22"><tspan
           sodipodi:role="line"
           id="tspan21"
           style="fill:#1a1a1a;stroke-width:0.182"
           x="100.09534"
           y="64.62323">ALEX</tspan><tspan
           sodipodi:role="line"
           style="fill:#1a1a1a;stroke-width:0.182"
           x="100.09534"
           y="72.362091"
           id="tspan22">GALPÃO</tspan></text></g><g
       id="g23"
       transform="translate(81.231352,75.841573)"><rect
         style="fill:#916f6f;fill-opacity:0.542745;fill-rule:evenodd;stroke:#000000;stroke-width:0.134839"
         id="rect1"
         width="35.703552"
         height="20.635096"
         x="74.894981"
         y="56.021347"
         rx="3.2111335"
         ry="3.2111843" /><text
         xml:space="preserve"
         style="font-weight:bold;font-size:6.19109px;font-family:Arial;-inkscape-font-specification:'Arial, Bold';text-align:center;text-anchor:middle;fill:#1a1a1a;fill-opacity:0.542745;fill-rule:evenodd;stroke:#000000;stroke-width:0.182"
         x="93.408218"
         y="64.62323"
         id="text23"><tspan
           sodipodi:role="line"
           id="tspan5"
           style="fill:#1a1a1a;stroke-width:0.182"
           x="93.408218"
           y="64.62323">MÁRCIA</tspan><tspan
           sodipodi:role="line"
           style="fill:#1a1a1a;stroke-width:0.182"
           x="93.408218"
           y="72.362091"
           id="tspan23">ADM</tspan></text></g></g></svg>
